<mxfile host="65bd71144e">
    <diagram id="h6iLOTjvrZjWlB6wbwkS" name="Page-1">
        <mxGraphModel dx="527" dy="1409" grid="1" gridSize="10" guides="1" tooltips="1" connect="1" arrows="1" fold="1" page="1" pageScale="1" pageWidth="850" pageHeight="1100" math="0" shadow="0">
            <root>
                <mxCell id="0"/>
                <mxCell id="1" parent="0"/>
                <mxCell id="18" value="" style="edgeStyle=none;html=1;fontFamily=Georgia;fontSize=27;" edge="1" parent="1" source="2" target="10">
                    <mxGeometry relative="1" as="geometry"/>
                </mxCell>
                <mxCell id="2" value="LOGO" style="rounded=1;whiteSpace=wrap;html=1;fontFamily=Georgia;fontSize=27;" vertex="1" parent="1">
                    <mxGeometry x="90" y="-1060" width="120" height="80" as="geometry"/>
                </mxCell>
                <object label="" id="9">
                    <mxCell style="strokeWidth=1;shadow=0;dashed=0;align=right;html=1;shape=mxgraph.mockup.forms.rrect;rSize=0;strokeColor=#999999;fontFamily=Georgia;fontSize=27;" vertex="1" parent="1">
                        <mxGeometry x="220" y="-1042.5" width="506" height="45" as="geometry"/>
                    </mxCell>
                </object>
                <mxCell id="10" value="Nhân viên" style="strokeColor=inherit;fillColor=inherit;gradientColor=inherit;strokeWidth=1;shadow=0;dashed=0;align=center;html=1;shape=mxgraph.mockup.forms.rrect;rSize=0;fontSize=17;fontColor=#666666;fontFamily=Georgia;spacingLeft=30;" vertex="1" parent="9">
                    <mxGeometry width="140" height="45" as="geometry"/>
                </mxCell>
                <mxCell id="14" value="Bảng lương" style="strokeColor=inherit;fillColor=inherit;gradientColor=inherit;strokeWidth=1;shadow=0;dashed=0;align=center;html=1;shape=mxgraph.mockup.forms.rrect;rSize=0;fontSize=17;fontColor=#666666;fontFamily=Georgia;" vertex="1" parent="9">
                    <mxGeometry x="323.84000000000003" width="182.16" height="45" as="geometry"/>
                </mxCell>
                <mxCell id="20" value="&lt;font style=&quot;font-size: 10px&quot;&gt;icon&lt;/font&gt;" style="shape=ext;double=1;rounded=1;whiteSpace=wrap;html=1;fontFamily=Georgia;fontSize=27;align=center;horizontal=1;verticalAlign=middle;labelBackgroundColor=none;spacingLeft=0;spacingBottom=12;" vertex="1" parent="9">
                    <mxGeometry x="10" y="12.5" width="30" height="20" as="geometry"/>
                </mxCell>
                <mxCell id="26" value="&lt;font style=&quot;font-size: 10px&quot;&gt;icon&lt;/font&gt;" style="shape=ext;double=1;rounded=1;whiteSpace=wrap;html=1;fontFamily=Georgia;fontSize=27;align=center;horizontal=1;verticalAlign=middle;labelBackgroundColor=none;spacingLeft=0;spacingBottom=12;" vertex="1" parent="9">
                    <mxGeometry x="338" y="12.5" width="30" height="20" as="geometry"/>
                </mxCell>
                <mxCell id="17" style="edgeStyle=none;html=1;fontFamily=Georgia;fontSize=27;startArrow=none;" edge="1" parent="1" source="13">
                    <mxGeometry relative="1" as="geometry">
                        <mxPoint x="360" y="-1020" as="targetPoint"/>
                    </mxGeometry>
                </mxCell>
                <mxCell id="13" value="Phòng ban" style="strokeColor=inherit;fillColor=inherit;gradientColor=inherit;strokeWidth=1;shadow=0;dashed=0;align=center;html=1;shape=mxgraph.mockup.forms.rrect;rSize=0;fontSize=17;fontColor=#666666;fontFamily=Georgia;spacingLeft=27;" vertex="1" parent="1">
                    <mxGeometry x="360" y="-1042.5" width="190" height="45" as="geometry"/>
                </mxCell>
                <mxCell id="19" value="" style="edgeStyle=none;html=1;fontFamily=Georgia;fontSize=27;endArrow=none;" edge="1" parent="1" source="10" target="13">
                    <mxGeometry relative="1" as="geometry">
                        <mxPoint x="360" y="-1020" as="targetPoint"/>
                        <mxPoint x="352.15999999999997" y="-1020" as="sourcePoint"/>
                    </mxGeometry>
                </mxCell>
                <mxCell id="25" value="&lt;font style=&quot;font-size: 10px&quot;&gt;icon&lt;/font&gt;" style="shape=ext;double=1;rounded=1;whiteSpace=wrap;html=1;fontFamily=Georgia;fontSize=27;align=center;horizontal=1;verticalAlign=middle;labelBackgroundColor=none;spacingLeft=0;spacingBottom=12;" vertex="1" parent="1">
                    <mxGeometry x="380" y="-1030" width="30" height="20" as="geometry"/>
                </mxCell>
                <mxCell id="27" value="&lt;font style=&quot;font-size: 17px;&quot;&gt;Nhân viên&lt;/font&gt;" style="strokeWidth=1;shadow=0;dashed=0;align=center;html=1;shape=mxgraph.mockup.navigation.anchor;fontSize=17;fontColor=#666666;fontStyle=1;labelBackgroundColor=none;fontFamily=Georgia;" vertex="1" parent="1">
                    <mxGeometry x="90" y="-965" width="80" height="40" as="geometry"/>
                </mxCell>
                <mxCell id="28" value="&gt;" style="strokeWidth=1;shadow=0;dashed=0;align=center;html=1;shape=mxgraph.mockup.navigation.anchor;fontSize=24;fontColor=#aaaaaa;fontStyle=1;labelBackgroundColor=none;fontFamily=Georgia;" vertex="1" parent="1">
                    <mxGeometry x="180" y="-960" width="20" height="30" as="geometry"/>
                </mxCell>
                <mxCell id="36" value="" style="endArrow=none;html=1;fontFamily=Georgia;fontSize=12;" edge="1" parent="1">
                    <mxGeometry width="50" height="50" relative="1" as="geometry">
                        <mxPoint x="70" y="-900" as="sourcePoint"/>
                        <mxPoint x="760" y="-900" as="targetPoint"/>
                    </mxGeometry>
                </mxCell>
                <mxCell id="38" value="" style="swimlane;startSize=0;labelBackgroundColor=none;fontFamily=Georgia;fontSize=12;" vertex="1" parent="1">
                    <mxGeometry x="70" y="-845" width="690" height="590" as="geometry"/>
                </mxCell>
                <mxCell id="39" value="" style="whiteSpace=wrap;html=1;aspect=fixed;labelBackgroundColor=none;fontFamily=Georgia;fontSize=12;" vertex="1" parent="38">
                    <mxGeometry x="30" y="20" width="70" height="70" as="geometry"/>
                </mxCell>
                <mxCell id="58" value="" style="whiteSpace=wrap;html=1;aspect=fixed;labelBackgroundColor=none;fontFamily=Georgia;fontSize=12;" vertex="1" parent="38">
                    <mxGeometry x="130" y="20" width="70" height="70" as="geometry"/>
                </mxCell>
                <mxCell id="60" value="" style="whiteSpace=wrap;html=1;aspect=fixed;labelBackgroundColor=none;fontFamily=Georgia;fontSize=12;" vertex="1" parent="38">
                    <mxGeometry x="230" y="20" width="70" height="70" as="geometry"/>
                </mxCell>
                <mxCell id="59" value="" style="whiteSpace=wrap;html=1;aspect=fixed;labelBackgroundColor=none;fontFamily=Georgia;fontSize=12;" vertex="1" parent="38">
                    <mxGeometry x="340" y="20" width="70" height="70" as="geometry"/>
                </mxCell>
                <mxCell id="61" value="" style="whiteSpace=wrap;html=1;aspect=fixed;labelBackgroundColor=none;fontFamily=Georgia;fontSize=12;" vertex="1" parent="38">
                    <mxGeometry x="450" y="20" width="70" height="70" as="geometry"/>
                </mxCell>
                <mxCell id="62" value="" style="whiteSpace=wrap;html=1;aspect=fixed;labelBackgroundColor=none;fontFamily=Georgia;fontSize=12;" vertex="1" parent="38">
                    <mxGeometry x="560" y="20" width="70" height="70" as="geometry"/>
                </mxCell>
                <UserObject label="Tên nhân viên" link="https://www.draw.io" id="66">
                    <mxCell style="text;html=1;strokeColor=none;fillColor=none;whiteSpace=wrap;align=center;verticalAlign=middle;fontColor=#0000EE;fontStyle=4;labelBackgroundColor=none;fontFamily=Georgia;fontSize=7;" vertex="1" parent="38">
                        <mxGeometry x="40" y="75" width="50" height="15" as="geometry"/>
                    </mxCell>
                </UserObject>
                <UserObject label="Tên nhân viên" link="https://www.draw.io" id="67">
                    <mxCell style="text;html=1;strokeColor=none;fillColor=none;whiteSpace=wrap;align=center;verticalAlign=middle;fontColor=#0000EE;fontStyle=4;labelBackgroundColor=none;fontFamily=Georgia;fontSize=7;" vertex="1" parent="38">
                        <mxGeometry x="140" y="75" width="50" height="15" as="geometry"/>
                    </mxCell>
                </UserObject>
                <UserObject label="Tên nhân viên" link="https://www.draw.io" id="68">
                    <mxCell style="text;html=1;strokeColor=none;fillColor=none;whiteSpace=wrap;align=center;verticalAlign=middle;fontColor=#0000EE;fontStyle=4;labelBackgroundColor=none;fontFamily=Georgia;fontSize=7;" vertex="1" parent="38">
                        <mxGeometry x="240" y="75" width="50" height="15" as="geometry"/>
                    </mxCell>
                </UserObject>
                <UserObject label="Tên nhân viên" link="https://www.draw.io" id="69">
                    <mxCell style="text;html=1;strokeColor=none;fillColor=none;whiteSpace=wrap;align=center;verticalAlign=middle;fontColor=#0000EE;fontStyle=4;labelBackgroundColor=none;fontFamily=Georgia;fontSize=7;" vertex="1" parent="38">
                        <mxGeometry x="350" y="75" width="50" height="15" as="geometry"/>
                    </mxCell>
                </UserObject>
                <UserObject label="Tên nhân viên" link="https://www.draw.io" id="70">
                    <mxCell style="text;html=1;strokeColor=none;fillColor=none;whiteSpace=wrap;align=center;verticalAlign=middle;fontColor=#0000EE;fontStyle=4;labelBackgroundColor=none;fontFamily=Georgia;fontSize=7;" vertex="1" parent="38">
                        <mxGeometry x="460" y="75" width="50" height="15" as="geometry"/>
                    </mxCell>
                </UserObject>
                <UserObject label="Tên nhân viên" link="https://www.draw.io" id="71">
                    <mxCell style="text;html=1;strokeColor=none;fillColor=none;whiteSpace=wrap;align=center;verticalAlign=middle;fontColor=#0000EE;fontStyle=4;labelBackgroundColor=none;fontFamily=Georgia;fontSize=7;" vertex="1" parent="38">
                        <mxGeometry x="570" y="75" width="50" height="15" as="geometry"/>
                    </mxCell>
                </UserObject>
                <mxCell id="72" value="Image" style="text;html=1;strokeColor=none;fillColor=none;align=center;verticalAlign=middle;whiteSpace=wrap;rounded=0;labelBackgroundColor=none;fontFamily=Georgia;fontSize=7;" vertex="1" parent="38">
                    <mxGeometry x="37.5" y="30" width="55" height="40" as="geometry"/>
                </mxCell>
                <mxCell id="73" value="Image" style="text;html=1;strokeColor=none;fillColor=none;align=center;verticalAlign=middle;whiteSpace=wrap;rounded=0;labelBackgroundColor=none;fontFamily=Georgia;fontSize=7;" vertex="1" parent="38">
                    <mxGeometry x="137.5" y="35" width="55" height="40" as="geometry"/>
                </mxCell>
                <mxCell id="74" value="Image" style="text;html=1;strokeColor=none;fillColor=none;align=center;verticalAlign=middle;whiteSpace=wrap;rounded=0;labelBackgroundColor=none;fontFamily=Georgia;fontSize=7;" vertex="1" parent="38">
                    <mxGeometry x="237.5" y="35" width="55" height="40" as="geometry"/>
                </mxCell>
                <mxCell id="75" value="Image" style="text;html=1;strokeColor=none;fillColor=none;align=center;verticalAlign=middle;whiteSpace=wrap;rounded=0;labelBackgroundColor=none;fontFamily=Georgia;fontSize=7;" vertex="1" parent="38">
                    <mxGeometry x="347.5" y="35" width="55" height="40" as="geometry"/>
                </mxCell>
                <mxCell id="76" value="Image" style="text;html=1;strokeColor=none;fillColor=none;align=center;verticalAlign=middle;whiteSpace=wrap;rounded=0;labelBackgroundColor=none;fontFamily=Georgia;fontSize=7;" vertex="1" parent="38">
                    <mxGeometry x="457.5" y="35" width="55" height="40" as="geometry"/>
                </mxCell>
                <mxCell id="77" value="Image" style="text;html=1;strokeColor=none;fillColor=none;align=center;verticalAlign=middle;whiteSpace=wrap;rounded=0;labelBackgroundColor=none;fontFamily=Georgia;fontSize=7;" vertex="1" parent="38">
                    <mxGeometry x="567.5" y="35" width="55" height="40" as="geometry"/>
                </mxCell>
                <mxCell id="78" value="" style="whiteSpace=wrap;html=1;aspect=fixed;labelBackgroundColor=none;fontFamily=Georgia;fontSize=12;" vertex="1" parent="38">
                    <mxGeometry x="30" y="135" width="70" height="70" as="geometry"/>
                </mxCell>
                <mxCell id="79" value="" style="whiteSpace=wrap;html=1;aspect=fixed;labelBackgroundColor=none;fontFamily=Georgia;fontSize=12;" vertex="1" parent="38">
                    <mxGeometry x="130" y="135" width="70" height="70" as="geometry"/>
                </mxCell>
                <mxCell id="80" value="" style="whiteSpace=wrap;html=1;aspect=fixed;labelBackgroundColor=none;fontFamily=Georgia;fontSize=12;" vertex="1" parent="38">
                    <mxGeometry x="230" y="135" width="70" height="70" as="geometry"/>
                </mxCell>
                <mxCell id="81" value="" style="whiteSpace=wrap;html=1;aspect=fixed;labelBackgroundColor=none;fontFamily=Georgia;fontSize=12;" vertex="1" parent="38">
                    <mxGeometry x="340" y="135" width="70" height="70" as="geometry"/>
                </mxCell>
                <mxCell id="82" value="" style="whiteSpace=wrap;html=1;aspect=fixed;labelBackgroundColor=none;fontFamily=Georgia;fontSize=12;" vertex="1" parent="38">
                    <mxGeometry x="450" y="135" width="70" height="70" as="geometry"/>
                </mxCell>
                <mxCell id="83" value="" style="whiteSpace=wrap;html=1;aspect=fixed;labelBackgroundColor=none;fontFamily=Georgia;fontSize=12;" vertex="1" parent="38">
                    <mxGeometry x="560" y="135" width="70" height="70" as="geometry"/>
                </mxCell>
                <UserObject label="Tên nhân viên" link="https://www.draw.io" id="84">
                    <mxCell style="text;html=1;strokeColor=none;fillColor=none;whiteSpace=wrap;align=center;verticalAlign=middle;fontColor=#0000EE;fontStyle=4;labelBackgroundColor=none;fontFamily=Georgia;fontSize=7;" vertex="1" parent="38">
                        <mxGeometry x="40" y="190" width="50" height="15" as="geometry"/>
                    </mxCell>
                </UserObject>
                <UserObject label="Tên nhân viên" link="https://www.draw.io" id="85">
                    <mxCell style="text;html=1;strokeColor=none;fillColor=none;whiteSpace=wrap;align=center;verticalAlign=middle;fontColor=#0000EE;fontStyle=4;labelBackgroundColor=none;fontFamily=Georgia;fontSize=7;" vertex="1" parent="38">
                        <mxGeometry x="140" y="190" width="50" height="15" as="geometry"/>
                    </mxCell>
                </UserObject>
                <UserObject label="Tên nhân viên" link="https://www.draw.io" id="86">
                    <mxCell style="text;html=1;strokeColor=none;fillColor=none;whiteSpace=wrap;align=center;verticalAlign=middle;fontColor=#0000EE;fontStyle=4;labelBackgroundColor=none;fontFamily=Georgia;fontSize=7;" vertex="1" parent="38">
                        <mxGeometry x="240" y="190" width="50" height="15" as="geometry"/>
                    </mxCell>
                </UserObject>
                <UserObject label="Tên nhân viên" link="https://www.draw.io" id="87">
                    <mxCell style="text;html=1;strokeColor=none;fillColor=none;whiteSpace=wrap;align=center;verticalAlign=middle;fontColor=#0000EE;fontStyle=4;labelBackgroundColor=none;fontFamily=Georgia;fontSize=7;" vertex="1" parent="38">
                        <mxGeometry x="350" y="190" width="50" height="15" as="geometry"/>
                    </mxCell>
                </UserObject>
                <UserObject label="Tên nhân viên" link="https://www.draw.io" id="88">
                    <mxCell style="text;html=1;strokeColor=none;fillColor=none;whiteSpace=wrap;align=center;verticalAlign=middle;fontColor=#0000EE;fontStyle=4;labelBackgroundColor=none;fontFamily=Georgia;fontSize=7;" vertex="1" parent="38">
                        <mxGeometry x="460" y="190" width="50" height="15" as="geometry"/>
                    </mxCell>
                </UserObject>
                <UserObject label="Tên nhân viên" link="https://www.draw.io" id="89">
                    <mxCell style="text;html=1;strokeColor=none;fillColor=none;whiteSpace=wrap;align=center;verticalAlign=middle;fontColor=#0000EE;fontStyle=4;labelBackgroundColor=none;fontFamily=Georgia;fontSize=7;" vertex="1" parent="38">
                        <mxGeometry x="570" y="190" width="50" height="15" as="geometry"/>
                    </mxCell>
                </UserObject>
                <mxCell id="90" value="Image" style="text;html=1;strokeColor=none;fillColor=none;align=center;verticalAlign=middle;whiteSpace=wrap;rounded=0;labelBackgroundColor=none;fontFamily=Georgia;fontSize=7;" vertex="1" parent="38">
                    <mxGeometry x="37.5" y="145" width="55" height="40" as="geometry"/>
                </mxCell>
                <mxCell id="91" value="Image" style="text;html=1;strokeColor=none;fillColor=none;align=center;verticalAlign=middle;whiteSpace=wrap;rounded=0;labelBackgroundColor=none;fontFamily=Georgia;fontSize=7;" vertex="1" parent="38">
                    <mxGeometry x="137.5" y="150" width="55" height="40" as="geometry"/>
                </mxCell>
                <mxCell id="92" value="Image" style="text;html=1;strokeColor=none;fillColor=none;align=center;verticalAlign=middle;whiteSpace=wrap;rounded=0;labelBackgroundColor=none;fontFamily=Georgia;fontSize=7;" vertex="1" parent="38">
                    <mxGeometry x="237.5" y="150" width="55" height="40" as="geometry"/>
                </mxCell>
                <mxCell id="93" value="Image" style="text;html=1;strokeColor=none;fillColor=none;align=center;verticalAlign=middle;whiteSpace=wrap;rounded=0;labelBackgroundColor=none;fontFamily=Georgia;fontSize=7;" vertex="1" parent="38">
                    <mxGeometry x="347.5" y="150" width="55" height="40" as="geometry"/>
                </mxCell>
                <mxCell id="94" value="Image" style="text;html=1;strokeColor=none;fillColor=none;align=center;verticalAlign=middle;whiteSpace=wrap;rounded=0;labelBackgroundColor=none;fontFamily=Georgia;fontSize=7;" vertex="1" parent="38">
                    <mxGeometry x="457.5" y="150" width="55" height="40" as="geometry"/>
                </mxCell>
                <mxCell id="95" value="Image" style="text;html=1;strokeColor=none;fillColor=none;align=center;verticalAlign=middle;whiteSpace=wrap;rounded=0;labelBackgroundColor=none;fontFamily=Georgia;fontSize=7;" vertex="1" parent="38">
                    <mxGeometry x="567.5" y="150" width="55" height="40" as="geometry"/>
                </mxCell>
                <mxCell id="96" value="" style="whiteSpace=wrap;html=1;aspect=fixed;labelBackgroundColor=none;fontFamily=Georgia;fontSize=12;" vertex="1" parent="38">
                    <mxGeometry x="30" y="245" width="70" height="70" as="geometry"/>
                </mxCell>
                <mxCell id="97" value="" style="whiteSpace=wrap;html=1;aspect=fixed;labelBackgroundColor=none;fontFamily=Georgia;fontSize=12;" vertex="1" parent="38">
                    <mxGeometry x="130" y="245" width="70" height="70" as="geometry"/>
                </mxCell>
                <mxCell id="98" value="" style="whiteSpace=wrap;html=1;aspect=fixed;labelBackgroundColor=none;fontFamily=Georgia;fontSize=12;" vertex="1" parent="38">
                    <mxGeometry x="230" y="245" width="70" height="70" as="geometry"/>
                </mxCell>
                <mxCell id="99" value="" style="whiteSpace=wrap;html=1;aspect=fixed;labelBackgroundColor=none;fontFamily=Georgia;fontSize=12;" vertex="1" parent="38">
                    <mxGeometry x="340" y="245" width="70" height="70" as="geometry"/>
                </mxCell>
                <mxCell id="100" value="" style="whiteSpace=wrap;html=1;aspect=fixed;labelBackgroundColor=none;fontFamily=Georgia;fontSize=12;" vertex="1" parent="38">
                    <mxGeometry x="450" y="245" width="70" height="70" as="geometry"/>
                </mxCell>
                <mxCell id="101" value="" style="whiteSpace=wrap;html=1;aspect=fixed;labelBackgroundColor=none;fontFamily=Georgia;fontSize=12;" vertex="1" parent="38">
                    <mxGeometry x="560" y="245" width="70" height="70" as="geometry"/>
                </mxCell>
                <UserObject label="Tên nhân viên" link="https://www.draw.io" id="102">
                    <mxCell style="text;html=1;strokeColor=none;fillColor=none;whiteSpace=wrap;align=center;verticalAlign=middle;fontColor=#0000EE;fontStyle=4;labelBackgroundColor=none;fontFamily=Georgia;fontSize=7;" vertex="1" parent="38">
                        <mxGeometry x="40" y="300" width="50" height="15" as="geometry"/>
                    </mxCell>
                </UserObject>
                <UserObject label="Tên nhân viên" link="https://www.draw.io" id="103">
                    <mxCell style="text;html=1;strokeColor=none;fillColor=none;whiteSpace=wrap;align=center;verticalAlign=middle;fontColor=#0000EE;fontStyle=4;labelBackgroundColor=none;fontFamily=Georgia;fontSize=7;" vertex="1" parent="38">
                        <mxGeometry x="140" y="300" width="50" height="15" as="geometry"/>
                    </mxCell>
                </UserObject>
                <UserObject label="Tên nhân viên" link="https://www.draw.io" id="104">
                    <mxCell style="text;html=1;strokeColor=none;fillColor=none;whiteSpace=wrap;align=center;verticalAlign=middle;fontColor=#0000EE;fontStyle=4;labelBackgroundColor=none;fontFamily=Georgia;fontSize=7;" vertex="1" parent="38">
                        <mxGeometry x="240" y="300" width="50" height="15" as="geometry"/>
                    </mxCell>
                </UserObject>
                <UserObject label="Tên nhân viên" link="https://www.draw.io" id="105">
                    <mxCell style="text;html=1;strokeColor=none;fillColor=none;whiteSpace=wrap;align=center;verticalAlign=middle;fontColor=#0000EE;fontStyle=4;labelBackgroundColor=none;fontFamily=Georgia;fontSize=7;" vertex="1" parent="38">
                        <mxGeometry x="350" y="300" width="50" height="15" as="geometry"/>
                    </mxCell>
                </UserObject>
                <UserObject label="Tên nhân viên" link="https://www.draw.io" id="106">
                    <mxCell style="text;html=1;strokeColor=none;fillColor=none;whiteSpace=wrap;align=center;verticalAlign=middle;fontColor=#0000EE;fontStyle=4;labelBackgroundColor=none;fontFamily=Georgia;fontSize=7;" vertex="1" parent="38">
                        <mxGeometry x="460" y="300" width="50" height="15" as="geometry"/>
                    </mxCell>
                </UserObject>
                <UserObject label="Tên nhân viên" link="https://www.draw.io" id="107">
                    <mxCell style="text;html=1;strokeColor=none;fillColor=none;whiteSpace=wrap;align=center;verticalAlign=middle;fontColor=#0000EE;fontStyle=4;labelBackgroundColor=none;fontFamily=Georgia;fontSize=7;" vertex="1" parent="38">
                        <mxGeometry x="570" y="300" width="50" height="15" as="geometry"/>
                    </mxCell>
                </UserObject>
                <mxCell id="108" value="Image" style="text;html=1;strokeColor=none;fillColor=none;align=center;verticalAlign=middle;whiteSpace=wrap;rounded=0;labelBackgroundColor=none;fontFamily=Georgia;fontSize=7;" vertex="1" parent="38">
                    <mxGeometry x="37.5" y="255" width="55" height="40" as="geometry"/>
                </mxCell>
                <mxCell id="109" value="Image" style="text;html=1;strokeColor=none;fillColor=none;align=center;verticalAlign=middle;whiteSpace=wrap;rounded=0;labelBackgroundColor=none;fontFamily=Georgia;fontSize=7;" vertex="1" parent="38">
                    <mxGeometry x="137.5" y="260" width="55" height="40" as="geometry"/>
                </mxCell>
                <mxCell id="110" value="Image" style="text;html=1;strokeColor=none;fillColor=none;align=center;verticalAlign=middle;whiteSpace=wrap;rounded=0;labelBackgroundColor=none;fontFamily=Georgia;fontSize=7;" vertex="1" parent="38">
                    <mxGeometry x="237.5" y="260" width="55" height="40" as="geometry"/>
                </mxCell>
                <mxCell id="111" value="Image" style="text;html=1;strokeColor=none;fillColor=none;align=center;verticalAlign=middle;whiteSpace=wrap;rounded=0;labelBackgroundColor=none;fontFamily=Georgia;fontSize=7;" vertex="1" parent="38">
                    <mxGeometry x="347.5" y="260" width="55" height="40" as="geometry"/>
                </mxCell>
                <mxCell id="112" value="Image" style="text;html=1;strokeColor=none;fillColor=none;align=center;verticalAlign=middle;whiteSpace=wrap;rounded=0;labelBackgroundColor=none;fontFamily=Georgia;fontSize=7;" vertex="1" parent="38">
                    <mxGeometry x="457.5" y="260" width="55" height="40" as="geometry"/>
                </mxCell>
                <mxCell id="113" value="Image" style="text;html=1;strokeColor=none;fillColor=none;align=center;verticalAlign=middle;whiteSpace=wrap;rounded=0;labelBackgroundColor=none;fontFamily=Georgia;fontSize=7;" vertex="1" parent="38">
                    <mxGeometry x="567.5" y="260" width="55" height="40" as="geometry"/>
                </mxCell>
                <mxCell id="114" value="" style="whiteSpace=wrap;html=1;aspect=fixed;labelBackgroundColor=none;fontFamily=Georgia;fontSize=12;" vertex="1" parent="38">
                    <mxGeometry x="30" y="365" width="70" height="70" as="geometry"/>
                </mxCell>
                <mxCell id="115" value="" style="whiteSpace=wrap;html=1;aspect=fixed;labelBackgroundColor=none;fontFamily=Georgia;fontSize=12;" vertex="1" parent="38">
                    <mxGeometry x="130" y="365" width="70" height="70" as="geometry"/>
                </mxCell>
                <mxCell id="116" value="" style="whiteSpace=wrap;html=1;aspect=fixed;labelBackgroundColor=none;fontFamily=Georgia;fontSize=12;" vertex="1" parent="38">
                    <mxGeometry x="230" y="365" width="70" height="70" as="geometry"/>
                </mxCell>
                <mxCell id="117" value="" style="whiteSpace=wrap;html=1;aspect=fixed;labelBackgroundColor=none;fontFamily=Georgia;fontSize=12;" vertex="1" parent="38">
                    <mxGeometry x="340" y="365" width="70" height="70" as="geometry"/>
                </mxCell>
                <mxCell id="118" value="" style="whiteSpace=wrap;html=1;aspect=fixed;labelBackgroundColor=none;fontFamily=Georgia;fontSize=12;" vertex="1" parent="38">
                    <mxGeometry x="450" y="365" width="70" height="70" as="geometry"/>
                </mxCell>
                <mxCell id="119" value="" style="whiteSpace=wrap;html=1;aspect=fixed;labelBackgroundColor=none;fontFamily=Georgia;fontSize=12;" vertex="1" parent="38">
                    <mxGeometry x="560" y="365" width="70" height="70" as="geometry"/>
                </mxCell>
                <UserObject label="Tên nhân viên" link="https://www.draw.io" id="120">
                    <mxCell style="text;html=1;strokeColor=none;fillColor=none;whiteSpace=wrap;align=center;verticalAlign=middle;fontColor=#0000EE;fontStyle=4;labelBackgroundColor=none;fontFamily=Georgia;fontSize=7;" vertex="1" parent="38">
                        <mxGeometry x="40" y="420" width="50" height="15" as="geometry"/>
                    </mxCell>
                </UserObject>
                <UserObject label="Tên nhân viên" link="https://www.draw.io" id="121">
                    <mxCell style="text;html=1;strokeColor=none;fillColor=none;whiteSpace=wrap;align=center;verticalAlign=middle;fontColor=#0000EE;fontStyle=4;labelBackgroundColor=none;fontFamily=Georgia;fontSize=7;" vertex="1" parent="38">
                        <mxGeometry x="140" y="420" width="50" height="15" as="geometry"/>
                    </mxCell>
                </UserObject>
                <UserObject label="Tên nhân viên" link="https://www.draw.io" id="122">
                    <mxCell style="text;html=1;strokeColor=none;fillColor=none;whiteSpace=wrap;align=center;verticalAlign=middle;fontColor=#0000EE;fontStyle=4;labelBackgroundColor=none;fontFamily=Georgia;fontSize=7;" vertex="1" parent="38">
                        <mxGeometry x="240" y="420" width="50" height="15" as="geometry"/>
                    </mxCell>
                </UserObject>
                <UserObject label="Tên nhân viên" link="https://www.draw.io" id="123">
                    <mxCell style="text;html=1;strokeColor=none;fillColor=none;whiteSpace=wrap;align=center;verticalAlign=middle;fontColor=#0000EE;fontStyle=4;labelBackgroundColor=none;fontFamily=Georgia;fontSize=7;" vertex="1" parent="38">
                        <mxGeometry x="350" y="420" width="50" height="15" as="geometry"/>
                    </mxCell>
                </UserObject>
                <UserObject label="Tên nhân viên" link="https://www.draw.io" id="124">
                    <mxCell style="text;html=1;strokeColor=none;fillColor=none;whiteSpace=wrap;align=center;verticalAlign=middle;fontColor=#0000EE;fontStyle=4;labelBackgroundColor=none;fontFamily=Georgia;fontSize=7;" vertex="1" parent="38">
                        <mxGeometry x="460" y="420" width="50" height="15" as="geometry"/>
                    </mxCell>
                </UserObject>
                <UserObject label="Tên nhân viên" link="https://www.draw.io" id="125">
                    <mxCell style="text;html=1;strokeColor=none;fillColor=none;whiteSpace=wrap;align=center;verticalAlign=middle;fontColor=#0000EE;fontStyle=4;labelBackgroundColor=none;fontFamily=Georgia;fontSize=7;" vertex="1" parent="38">
                        <mxGeometry x="570" y="420" width="50" height="15" as="geometry"/>
                    </mxCell>
                </UserObject>
                <mxCell id="126" value="Image" style="text;html=1;strokeColor=none;fillColor=none;align=center;verticalAlign=middle;whiteSpace=wrap;rounded=0;labelBackgroundColor=none;fontFamily=Georgia;fontSize=7;" vertex="1" parent="38">
                    <mxGeometry x="37.5" y="375" width="55" height="40" as="geometry"/>
                </mxCell>
                <mxCell id="127" value="Image" style="text;html=1;strokeColor=none;fillColor=none;align=center;verticalAlign=middle;whiteSpace=wrap;rounded=0;labelBackgroundColor=none;fontFamily=Georgia;fontSize=7;" vertex="1" parent="38">
                    <mxGeometry x="137.5" y="380" width="55" height="40" as="geometry"/>
                </mxCell>
                <mxCell id="128" value="Image" style="text;html=1;strokeColor=none;fillColor=none;align=center;verticalAlign=middle;whiteSpace=wrap;rounded=0;labelBackgroundColor=none;fontFamily=Georgia;fontSize=7;" vertex="1" parent="38">
                    <mxGeometry x="237.5" y="380" width="55" height="40" as="geometry"/>
                </mxCell>
                <mxCell id="129" value="Image" style="text;html=1;strokeColor=none;fillColor=none;align=center;verticalAlign=middle;whiteSpace=wrap;rounded=0;labelBackgroundColor=none;fontFamily=Georgia;fontSize=7;" vertex="1" parent="38">
                    <mxGeometry x="347.5" y="380" width="55" height="40" as="geometry"/>
                </mxCell>
                <mxCell id="130" value="Image" style="text;html=1;strokeColor=none;fillColor=none;align=center;verticalAlign=middle;whiteSpace=wrap;rounded=0;labelBackgroundColor=none;fontFamily=Georgia;fontSize=7;" vertex="1" parent="38">
                    <mxGeometry x="457.5" y="380" width="55" height="40" as="geometry"/>
                </mxCell>
                <mxCell id="131" value="Image" style="text;html=1;strokeColor=none;fillColor=none;align=center;verticalAlign=middle;whiteSpace=wrap;rounded=0;labelBackgroundColor=none;fontFamily=Georgia;fontSize=7;" vertex="1" parent="38">
                    <mxGeometry x="567.5" y="380" width="55" height="40" as="geometry"/>
                </mxCell>
                <mxCell id="132" value="" style="whiteSpace=wrap;html=1;aspect=fixed;labelBackgroundColor=none;fontFamily=Georgia;fontSize=12;" vertex="1" parent="38">
                    <mxGeometry x="30" y="475" width="70" height="70" as="geometry"/>
                </mxCell>
                <mxCell id="133" value="" style="whiteSpace=wrap;html=1;aspect=fixed;labelBackgroundColor=none;fontFamily=Georgia;fontSize=12;" vertex="1" parent="38">
                    <mxGeometry x="130" y="475" width="70" height="70" as="geometry"/>
                </mxCell>
                <mxCell id="134" value="" style="whiteSpace=wrap;html=1;aspect=fixed;labelBackgroundColor=none;fontFamily=Georgia;fontSize=12;" vertex="1" parent="38">
                    <mxGeometry x="230" y="475" width="70" height="70" as="geometry"/>
                </mxCell>
                <mxCell id="135" value="" style="whiteSpace=wrap;html=1;aspect=fixed;labelBackgroundColor=none;fontFamily=Georgia;fontSize=12;" vertex="1" parent="38">
                    <mxGeometry x="340" y="475" width="70" height="70" as="geometry"/>
                </mxCell>
                <mxCell id="136" value="" style="whiteSpace=wrap;html=1;aspect=fixed;labelBackgroundColor=none;fontFamily=Georgia;fontSize=12;" vertex="1" parent="38">
                    <mxGeometry x="450" y="475" width="70" height="70" as="geometry"/>
                </mxCell>
                <mxCell id="137" value="" style="whiteSpace=wrap;html=1;aspect=fixed;labelBackgroundColor=none;fontFamily=Georgia;fontSize=12;" vertex="1" parent="38">
                    <mxGeometry x="560" y="475" width="70" height="70" as="geometry"/>
                </mxCell>
                <UserObject label="Tên nhân viên" link="https://www.draw.io" id="138">
                    <mxCell style="text;html=1;strokeColor=none;fillColor=none;whiteSpace=wrap;align=center;verticalAlign=middle;fontColor=#0000EE;fontStyle=4;labelBackgroundColor=none;fontFamily=Georgia;fontSize=7;" vertex="1" parent="38">
                        <mxGeometry x="40" y="530" width="50" height="15" as="geometry"/>
                    </mxCell>
                </UserObject>
                <UserObject label="Tên nhân viên" link="https://www.draw.io" id="139">
                    <mxCell style="text;html=1;strokeColor=none;fillColor=none;whiteSpace=wrap;align=center;verticalAlign=middle;fontColor=#0000EE;fontStyle=4;labelBackgroundColor=none;fontFamily=Georgia;fontSize=7;" vertex="1" parent="38">
                        <mxGeometry x="140" y="530" width="50" height="15" as="geometry"/>
                    </mxCell>
                </UserObject>
                <UserObject label="Tên nhân viên" link="https://www.draw.io" id="140">
                    <mxCell style="text;html=1;strokeColor=none;fillColor=none;whiteSpace=wrap;align=center;verticalAlign=middle;fontColor=#0000EE;fontStyle=4;labelBackgroundColor=none;fontFamily=Georgia;fontSize=7;" vertex="1" parent="38">
                        <mxGeometry x="240" y="530" width="50" height="15" as="geometry"/>
                    </mxCell>
                </UserObject>
                <UserObject label="Tên nhân viên" link="https://www.draw.io" id="141">
                    <mxCell style="text;html=1;strokeColor=none;fillColor=none;whiteSpace=wrap;align=center;verticalAlign=middle;fontColor=#0000EE;fontStyle=4;labelBackgroundColor=none;fontFamily=Georgia;fontSize=7;" vertex="1" parent="38">
                        <mxGeometry x="350" y="530" width="50" height="15" as="geometry"/>
                    </mxCell>
                </UserObject>
                <UserObject label="Tên nhân viên" link="https://www.draw.io" id="142">
                    <mxCell style="text;html=1;strokeColor=none;fillColor=none;whiteSpace=wrap;align=center;verticalAlign=middle;fontColor=#0000EE;fontStyle=4;labelBackgroundColor=none;fontFamily=Georgia;fontSize=7;" vertex="1" parent="38">
                        <mxGeometry x="460" y="530" width="50" height="15" as="geometry"/>
                    </mxCell>
                </UserObject>
                <UserObject label="Tên nhân viên" link="https://www.draw.io" id="143">
                    <mxCell style="text;html=1;strokeColor=none;fillColor=none;whiteSpace=wrap;align=center;verticalAlign=middle;fontColor=#0000EE;fontStyle=4;labelBackgroundColor=none;fontFamily=Georgia;fontSize=7;" vertex="1" parent="38">
                        <mxGeometry x="570" y="530" width="50" height="15" as="geometry"/>
                    </mxCell>
                </UserObject>
                <mxCell id="144" value="Image" style="text;html=1;strokeColor=none;fillColor=none;align=center;verticalAlign=middle;whiteSpace=wrap;rounded=0;labelBackgroundColor=none;fontFamily=Georgia;fontSize=7;" vertex="1" parent="38">
                    <mxGeometry x="37.5" y="485" width="55" height="40" as="geometry"/>
                </mxCell>
                <mxCell id="145" value="Image" style="text;html=1;strokeColor=none;fillColor=none;align=center;verticalAlign=middle;whiteSpace=wrap;rounded=0;labelBackgroundColor=none;fontFamily=Georgia;fontSize=7;" vertex="1" parent="38">
                    <mxGeometry x="137.5" y="490" width="55" height="40" as="geometry"/>
                </mxCell>
                <mxCell id="146" value="Image" style="text;html=1;strokeColor=none;fillColor=none;align=center;verticalAlign=middle;whiteSpace=wrap;rounded=0;labelBackgroundColor=none;fontFamily=Georgia;fontSize=7;" vertex="1" parent="38">
                    <mxGeometry x="237.5" y="490" width="55" height="40" as="geometry"/>
                </mxCell>
                <mxCell id="147" value="Image" style="text;html=1;strokeColor=none;fillColor=none;align=center;verticalAlign=middle;whiteSpace=wrap;rounded=0;labelBackgroundColor=none;fontFamily=Georgia;fontSize=7;" vertex="1" parent="38">
                    <mxGeometry x="347.5" y="490" width="55" height="40" as="geometry"/>
                </mxCell>
                <mxCell id="148" value="Image" style="text;html=1;strokeColor=none;fillColor=none;align=center;verticalAlign=middle;whiteSpace=wrap;rounded=0;labelBackgroundColor=none;fontFamily=Georgia;fontSize=7;" vertex="1" parent="38">
                    <mxGeometry x="457.5" y="490" width="55" height="40" as="geometry"/>
                </mxCell>
                <mxCell id="149" value="Image" style="text;html=1;strokeColor=none;fillColor=none;align=center;verticalAlign=middle;whiteSpace=wrap;rounded=0;labelBackgroundColor=none;fontFamily=Georgia;fontSize=7;" vertex="1" parent="38">
                    <mxGeometry x="567.5" y="490" width="55" height="40" as="geometry"/>
                </mxCell>
                <mxCell id="53" value="" style="endArrow=none;html=1;fontFamily=Georgia;fontSize=12;" edge="1" parent="1">
                    <mxGeometry width="50" height="50" relative="1" as="geometry">
                        <mxPoint x="70" y="-220" as="sourcePoint"/>
                        <mxPoint x="760" y="-220" as="targetPoint"/>
                    </mxGeometry>
                </mxCell>
                <mxCell id="55" value="Bám vào nhân viên&amp;nbsp;để xem thông tin chi tiết" style="text;html=1;strokeColor=none;fillColor=none;align=center;verticalAlign=middle;whiteSpace=wrap;rounded=0;labelBackgroundColor=none;fontFamily=Georgia;fontSize=12;fontStyle=2" vertex="1" parent="1">
                    <mxGeometry x="90" y="-890" width="270" height="30" as="geometry"/>
                </mxCell>
                <mxCell id="57" value="&lt;b style=&quot;font-style: normal&quot;&gt;Danh sách nhân viên&lt;/b&gt;" style="text;html=1;strokeColor=none;fillColor=none;align=left;verticalAlign=middle;whiteSpace=wrap;rounded=0;labelBackgroundColor=none;fontFamily=Georgia;fontSize=12;fontStyle=2" vertex="1" parent="1">
                    <mxGeometry x="90" y="-930" width="150" height="30" as="geometry"/>
                </mxCell>
                <mxCell id="150" value="List Item" style="text;strokeColor=none;fillColor=none;align=left;verticalAlign=middle;spacingLeft=4;spacingRight=4;overflow=hidden;points=[[0,0.5],[1,0.5]];portConstraint=eastwest;rotatable=0;labelBackgroundColor=none;fontFamily=Georgia;fontSize=7;" vertex="1" parent="1">
                    <mxGeometry x="260" y="-430" width="80" height="30" as="geometry"/>
                </mxCell>
                <mxCell id="151" value="Thông tin liên lạc" style="swimlane;fontStyle=0;childLayout=stackLayout;horizontal=1;startSize=30;horizontalStack=0;resizeParent=1;resizeParentMax=0;resizeLast=0;collapsible=1;marginBottom=0;labelBackgroundColor=none;fontFamily=Georgia;fontSize=7;" vertex="1" parent="1">
                    <mxGeometry x="120" y="-190" width="200" height="120" as="geometry"/>
                </mxCell>
                <mxCell id="152" value="Địa chỉ" style="text;strokeColor=none;fillColor=none;align=left;verticalAlign=middle;spacingLeft=4;spacingRight=4;overflow=hidden;points=[[0,0.5],[1,0.5]];portConstraint=eastwest;rotatable=0;labelBackgroundColor=none;fontFamily=Georgia;fontSize=7;" vertex="1" parent="151">
                    <mxGeometry y="30" width="200" height="30" as="geometry"/>
                </mxCell>
                <mxCell id="153" value="Số điện thoại" style="text;strokeColor=none;fillColor=none;align=left;verticalAlign=middle;spacingLeft=4;spacingRight=4;overflow=hidden;points=[[0,0.5],[1,0.5]];portConstraint=eastwest;rotatable=0;labelBackgroundColor=none;fontFamily=Georgia;fontSize=7;" vertex="1" parent="151">
                    <mxGeometry y="60" width="200" height="30" as="geometry"/>
                </mxCell>
                <mxCell id="154" value="Email" style="text;strokeColor=none;fillColor=none;align=left;verticalAlign=middle;spacingLeft=4;spacingRight=4;overflow=hidden;points=[[0,0.5],[1,0.5]];portConstraint=eastwest;rotatable=0;labelBackgroundColor=none;fontFamily=Georgia;fontSize=7;" vertex="1" parent="151">
                    <mxGeometry y="90" width="200" height="30" as="geometry"/>
                </mxCell>
                <mxCell id="158" value="&lt;font style=&quot;font-size: 12px&quot;&gt;Widget Socail&lt;/font&gt;" style="shape=ext;double=1;rounded=1;whiteSpace=wrap;html=1;labelBackgroundColor=none;fontFamily=Georgia;fontSize=7;" vertex="1" parent="1">
                    <mxGeometry x="460" y="-160" width="47" height="50" as="geometry"/>
                </mxCell>
                <mxCell id="159" value="&lt;font style=&quot;font-size: 12px&quot;&gt;Widget Socail&lt;/font&gt;" style="shape=ext;double=1;rounded=1;whiteSpace=wrap;html=1;labelBackgroundColor=none;fontFamily=Georgia;fontSize=7;" vertex="1" parent="1">
                    <mxGeometry x="510" y="-160" width="47" height="50" as="geometry"/>
                </mxCell>
                <mxCell id="160" value="&lt;font style=&quot;font-size: 12px&quot;&gt;Widget Socail&lt;/font&gt;" style="shape=ext;double=1;rounded=1;whiteSpace=wrap;html=1;labelBackgroundColor=none;fontFamily=Georgia;fontSize=7;" vertex="1" parent="1">
                    <mxGeometry x="560" y="-160" width="47" height="50" as="geometry"/>
                </mxCell>
                <mxCell id="161" value="&lt;font style=&quot;font-size: 12px&quot;&gt;Widget Socail&lt;/font&gt;" style="shape=ext;double=1;rounded=1;whiteSpace=wrap;html=1;labelBackgroundColor=none;fontFamily=Georgia;fontSize=7;" vertex="1" parent="1">
                    <mxGeometry x="610" y="-160" width="47" height="50" as="geometry"/>
                </mxCell>
            </root>
        </mxGraphModel>
    </diagram>
</mxfile>